# AST/ASF file generated using VICON BodyLanguage
# -----------------------------------------------
:version 1.10
:name VICON
:units
  mass 1.0
  length 0.45
  angle deg
:documentation
   .ast/.asf automatically generated from VICON data using
   VICON BodyBuilder and BodyLanguage model FoxedUp or BRILLIANT.MOD
:root
   order TX TY TZ RX RY RZ
   axis XYZ
   position 0 0 0  
   orientation 0 0 0 
:bonedata
  begin
     id 1 
     name lhipjoint
     direction 0.682418 -0.694059 0.22932 
     length 2.25561 
     axis 0 0 0  XYZ
  end
  begin
     id 2 
     name lfemur
     direction 0.34202 -0.939693 0  
     length 6.96448  
     axis 0 0 20  XYZ
    dof rx ry rz
    limits (-160.0 20.0)
           (-70.0 70.0)
           (-60.0 70.0)
  end
  begin
     id 3 
     name ltibia
     direction 0.34202 -0.939693 0   
     length 6.88553   
     axis 0 0 20   XYZ
    dof rx
    limits (-10.0 170.0)
  end
  begin
     id 4 
     name lfoot
     direction 0.0723587 -0.198804 0.977364   
     length 1.88518   
     axis -90 7.62852e-016 20   XYZ
    dof rx rz
    limits (-45.0 90.0)
           (-70.0 20.0)
  end
  begin
     id 5 
     name ltoes
     direction 1.53558e-011 -4.21962e-011 1   
     length 0.952124   
     axis -90 7.62852e-016 20   XYZ
    dof rx
    limits (-90.0 20.0)
  end
  begin
     id 6 
     name rhipjoint
     direction -0.657603 -0.71533 0.236348   
     length 2.18854  
     axis 0 0 0  XYZ 
  end
  begin
     id 7 
     name rfemur
     direction -0.34202 -0.939693 0   
     length 6.86686   
     axis 0 0 -20   XYZ
    dof rx ry rz
    limits (-160.0 20.0)
           (-70.0 70.0)
           (-70.0 60.0)
  end
  begin
     id 8 
     name rtibia
     direction -0.34202 -0.939693 0   
     length 6.59503   
     axis 0 0 -20   XYZ
    dof rx
    limits (-10.0 170.0)
 end
 begin
     id 9 
     name rfoot
     direction -0.101977 -0.280179 0.954516   
     length 1.93723  
     axis -90 -7.62852e-016 -20   XYZ
    dof rx rz
    limits (-45.0 90.0)
           (-20.0 70.0)
  end
  begin
     id 10 
     name rtoes
     direction -1.53564e-011 -4.21897e-011 1   
     length 0.970315   
     axis -90 -7.62852e-016 -20   XYZ
    dof rx
    limits (-90.0 20.0)
  end
  begin
     id 11 
     name lowerback
     direction -0.0339559 0.999421 -0.00235966   
     length 1.88543   
     axis 0 0 0   XYZ
    dof rx ry rz
    limits (-20.0 45.0)
           (-30.0 30.0)
           (-30.0 30.0)
  end
  begin
     id 12 
     name upperback
     direction 0.00401003 0.999739 0.0224689   
     length 1.8856   
     axis 0 0 0   XYZ
    dof rx ry rz
    limits (-20.0 45.0)
           (-30.0 30.0)
           (-30.0 30.0)
  end
  begin
     id 13 
     name thorax
     direction 0.0198619 0.999546 0.0226536   
     length 1.88352   
     axis 0 0 0   XYZ
    dof rx ry rz
    limits (-20.0 45.0)
           (-30.0 30.0)
           (-30.0 30.0)
  end
  begin
     id 14 
     name lowerneck
     direction -0.0461848 0.998632 0.0245198   
     length 1.34895   
     axis 0 0 0   XYZ
    dof rx ry rz
    limits (-20.0 45.0)
           (-30.0 30.0)
           (-30.0 30.0)
  end
  begin
     id 15 
     name upperneck
     direction -0.0180627 0.994724 -0.100984   
     length 1.35214   
     axis 0 0 0   XYZ
    dof rx ry rz
    limits (-20.0 45.0)
           (-30.0 30.0)
           (-30.0 30.0)
  end
  begin
     id 16
     name head
     direction -0.00374772 0.999293 -0.037403  
     length 1.3568  
     axis 0 0 0   XYZ
    dof rx ry rz
    limits (-20.0 45.0)
           (-30.0 30.0)
           (-30.0 30.0)
  end
  begin
     id 17 
     name lclavicle
     direction 0.971773 0.191119 0.138311  
     length 2.84954  
     axis 0 0 0   XYZ
    dof ry rz
    limits (-20.0 10.0)
           (0.0 20.0)
  end
  begin
     id 18 
     name lhumerus
     direction 1 -4.4897e-011 -2.43761e-027   
     length 4.40919   
     axis 180 -30 -90   XYZ
    dof rx ry rz
    limits (-60.0 90.0)
           (-90.0 90.0)
           (-90.0 90.0)
  end
  begin
     id 19
     name lradius
     direction 1 -4.4896e-011 -9.1621e-027   
     length 3.03857   
     axis 180 -30 -90   XYZ
    dof rx
    limits (-10.0 170.0)
  end
  begin
     id 20
     name lwrist
     direction 1 -4.4896e-011 -1.41363e-026   
     length 1.51928   
     axis 1.07133e-014 90 90   XYZ
    dof ry
    limits (-180.0 0.0)
 end
  begin
     id 21 
     name lhand
     direction 1 -4.48978e-011 -2.82725e-026   
     length 0.523208   
     axis 1.80403e-014 90 90   XYZ
    dof rx rz
    limits (-90.0 90.0)
           (-45.0 45.0)
  end
  begin
     id 22 
     name lfingers
     direction 1 -4.48977e-011 -5.6545e-026   
     length 0.421824   
     axis 3.60806e-014 90 90   XYZ
    dof rx
    limits (0.0 90.0)
  end
  begin
     id 23
     name lthumb
     direction 0.707107 -6.34962e-011 0.707107   
     length 0.605657   
     axis -90 45 2.85299e-015   XYZ
    dof rx rz
    limits (-45.0 45.0)
           (-45.0 45.0)
  end
  begin
     id 24 
     name rclavicle
     direction -0.957247 0.24311 0.156766   
     length 3.12406  
     axis 0 0 0   XYZ 
    dof ry rz
    limits (-10.0 20.0)
           (-20.0 0.0)
  end
  begin
     id 25 
     name rhumerus
     direction -1 -4.48964e-011 -1.70632e-027  
     length 4.61969   
     axis 180 30 90   XYZ
    dof rx ry rz
    limits (-90.0 60.0)
           (-90.0 90.0)
           (-90.0 90.0)
  end
  begin
     id 26 
     name rradius
     direction -1 -4.48966e-011 -6.60395e-027   
     length 3.09382   
     axis 180 30 90   XYZ
    dof rx
    limits (-10.0 170.0)
  end
  begin
     id 27 
     name rwrist
     direction -1 -4.48963e-011 -1.41363e-026   
     length 1.54691   
     axis 1.07133e-014 -90 -90   XYZ
    dof ry
    limits (-180.0 0.0)
  end
  begin
     id 28
     name rhand
     direction -1 -4.49013e-011 -2.82725e-026   
     length 0.500896   
     axis 1.80403e-014 -90 -90   XYZ
    dof rx rz
    limits (-90.0 90.0)
           (-45.0 45.0)
  end
  begin
     id 29
     name rfingers
     direction -1 -4.48902e-011 -5.6545e-026   
     length 0.403835   
     axis 3.60806e-014 -90 -90   XYZ
    dof rx
    limits (0.0 90.0)
  end
  begin
     id 30
     name rthumb
     direction -0.707107 -6.34953e-011 0.707107   
     length 0.579829   
     axis -90 -45 -2.85299e-015   XYZ
    dof rx rz
    limits (-45.0 45.0)
           (-45.0 45.0)
  end
:hierarchy
  begin
    root lhipjoint rhipjoint lowerback
    lhipjoint lfemur
    lfemur ltibia
    ltibia lfoot
    lfoot ltoes
    rhipjoint rfemur
    rfemur rtibia
    rtibia rfoot
    rfoot rtoes
    lowerback upperback
    upperback thorax
    thorax lowerneck lclavicle rclavicle
    lowerneck upperneck
    upperneck head
    lclavicle lhumerus
    lhumerus lradius
    lradius lwrist
    lwrist lhand lthumb
    lhand lfingers
    rclavicle rhumerus
    rhumerus rradius
    rradius rwrist
    rwrist rhand rthumb
    rhand rfingers
  end

#!OML:ASF E:\madness\Project 1\Capture day 1\Session 1\Female1.ASF
:FULLY-SPECIFIED
:DEGREES
203
root 5.27887 15.2384 0.865559 -18.3138 -82.8702 24.502
lowerback 8.78044 1.03209 -2.12751
upperback 2.33282 1.14427 0.668813
thorax -2.55941 0.552847 1.76464
lowerneck -3.52429 2.24417 2.57078
upperneck 19.6255 2.67865 -1.49498
head 6.5971 1.20569 -0.747785
rclavicle 7.15625e-015 -1.19271e-014
rhumerus 14.1672 -35.692 -5.61178
rradius 131.803
rwrist -15.9376
rhand -13.5093 -41.7177
rfingers 7.12502
rthumb 12.6022 -71.3175
lclavicle 7.15625e-015 -1.19271e-014
lhumerus 8.22416 14.2798 35.2786
lradius 135.435
lwrist -8.53127
lhand -26.3881 -29.5276
lfingers 7.12502
lthumb 0.1709 0.452122
rfemur -37.7258 12.8048 1.76115
rtibia 35.5544
rfoot -6.97786 -15.6469
rtoes 8.26562
lfemur -19.7411 -0.11776 -23.6079
ltibia 47.1558
lfoot -27.5035 16.4359
ltoes -1.03164
204
root 5.3264 15.2413 0.896221 -16.364 -82.8232 22.4865
lowerback 8.8324 0.97028 -2.3529
upperback 2.30901 1.0472 0.867843
thorax -2.61574 0.50659 2.1076
lowerneck -3.41864 1.27367 1.69963
upperneck 19.4889 1.34568 -0.990678
head 6.49469 0.539533 -0.530928
rclavicle 1.2921e-014 5.56597e-015
rhumerus 13.4485 -36.2257 -5.02334
rradius 132.086
rwrist -16.5826
rhand -13.4119 -42.3251
rfingers 7.12502
rthumb 12.6962 -71.9192
lclavicle 1.2921e-014 5.56597e-015
lhumerus 9.83773 14.2178 36.6107
lradius 135.351
lwrist -9.13467
lhand -26.1832 -29.0192
lfingers 7.12502
lthumb 0.368842 0.960224
rfemur -37.5016 12.9419 1.75849
rtibia 34.9944
rfoot -6.58764 -16.0465
rtoes 7.10174
lfemur -20.0098 -0.137824 -23.5156
ltibia 47.3755
lfoot -27.5318 16.2824
ltoes -0.749211
205
root 5.37186 15.245 0.92411 -13.6857 -82.6744 19.773
lowerback 8.83398 0.803829 -2.6334
upperback 2.28965 0.809189 1.12654
thorax -2.63084 0.390142 2.56048
lowerneck -3.88922 0.523987 0.40127
upperneck 20.1572 0.249518 -0.0279076
head 6.772 -0.0152751 -0.0785329
rclavicle 1.19271e-014 -3.18055e-015
rhumerus 13.0666 -36.6874 -4.60865
rradius 132.276
rwrist -17.1152
rhand -13.1698 -42.7404
rfingers 7.12502
rthumb 12.9295 -72.3198
lclavicle 1.19271e-014 -3.18055e-015
lhumerus 11.053 14.3384 37.695
lradius 135.482
lwrist -9.20283
lhand -26.1725 -28.4354
lfingers 7.12502
lthumb 0.379149 1.54398
rfemur -37.2952 13.1402 1.76536
rtibia 34.4837
rfoot -6.4227 -16.5197
rtoes 7.37115
lfemur -20.3355 -0.173935 -23.3336
ltibia 47.5891
lfoot -27.5726 16.0259
ltoes -0.395969
206
root 5.41771 15.246 0.950762 -12.0717 -82.5209 18.1545
lowerback 8.84209 0.569087 -3.07687
upperback 2.31818 0.462062 1.29759
thorax -2.58758 0.217966 3.02728
lowerneck -4.26055 -0.127911 -0.337396
upperneck 20.5373 -0.686214 0.527451
head 6.96234 -0.478525 0.157378
rclavicle -7.55382e-015 -1.66979e-014
rhumerus 13.0938 -37.2576 -4.63393
rradius 132.321
rwrist -17.3203
rhand -12.4483 -42.7992
rfingers 7.12502
rthumb 13.625 -72.3333
lclavicle -7.55382e-015 -1.66979e-014
lhumerus 12.1149 14.6465 38.4475
lradius 135.588
lwrist -9.18746
lhand -26.1873 -28.8875
lfingers 7.12502
lthumb 0.364886 1.09194
rfemur -37.1187 13.221 1.67231
rtibia 33.9838
rfoot -6.29985 -16.8683
rtoes 8.09082
lfemur -20.6586 -0.103664 -23.2795
ltibia 47.7908
lfoot -27.6002 15.7021
ltoes -0.31981
207
root 5.46403 15.2514 0.98023 -11.508 -82.4891 17.605
lowerback 8.85333 0.385859 -3.5728
upperback 2.35917 0.176279 1.39925
thorax -2.53059 0.0754736 3.44515
lowerneck -4.64159 -0.779134 -0.758729
upperneck 20.8193 -1.62436 0.936239
head 7.13309 -0.927178 0.289073
rclavicle 2.88238e-015 4.77083e-015
rhumerus 13.1737 -37.8578 -4.74344
rradius 132.399
rwrist -17.4563
rhand -11.5539 -43.2221
rfingers 7.12502
rthumb 14.4868 -72.6964
lclavicle 2.88238e-015 4.77083e-015
lhumerus 13.2857 14.9253 39.2264
lradius 135.536
lwrist -9.67942
lhand -26.3993 -28.9324
lfingers 7.12502
lthumb 0.160083 1.04729
rfemur -37.017 13.3675 1.43803
rtibia 33.4732
rfoot -6.0797 -17.106
rtoes 9.06971
lfemur -20.9684 0.0792033 -23.3429
ltibia 47.9857
lfoot -27.619 15.4036
ltoes -0.0363236
208
root 5.50611 15.2564 1.00849 -10.5819 -82.5505 16.6597
lowerback 8.85364 0.244793 -3.97474
upperback 2.36538 -0.0437661 1.51673
thorax -2.504 -0.0334617 3.81948
lowerneck -4.92729 -1.45612 -0.909342
upperneck 21.1475 -2.58363 1.06508
head 7.30451 -1.38864 0.279061
rclavicle 1.61016e-014 -6.75868e-015
rhumerus 13.1056 -38.3896 -4.66219
rradius 132.505
rwrist -17.6714
rhand -11.0106 -43.7833
rfingers 7.12502
rthumb 15.0102 -73.2192
lclavicle 1.61016e-014 -6.75868e-015
lhumerus 14.5039 15.1119 40.0487
lradius 135.516
lwrist -9.94328
lhand -22.6077 -27.0699
lfingers 7.12502
lthumb 3.82197 2.87557
rfemur -36.8985 13.7262 1.25585
rtibia 32.942
rfoot -5.871 -17.4823
rtoes 9.90555
lfemur -21.2384 0.30715 -23.3282
ltibia 48.2031
lfoot -27.5879 15.2236
ltoes 0.144539
209
root 5.54411 15.2526 1.03248 -8.67541 -82.6962 14.724
lowerback 8.86156 0.127034 -4.1728
upperback 2.33421 -0.215861 1.58628
thorax -2.52279 -0.117141 4.02342
lowerneck -4.90318 -2.14933 -1.02738
upperneck 21.4072 -3.5957 1.27313
head 7.40355 -1.86877 0.2856
rclavicle 1.21259e-014 -8.34896e-015
rhumerus 12.7356 -38.9716 -4.39138
rradius 132.579
rwrist -17.8295
rhand -11.0128 -43.8213
rfingers 7.12502
rthumb 15.0082 -73.2574
lclavicle 1.21259e-014 -8.34896e-015
lhumerus 16.1587 15.1868 40.9145
lradius 135.45
lwrist -10.0064
lhand -22.2077 -26.7237
lfingers 7.12502
lthumb 4.20824 3.21449
rfemur -36.7508 14.1744 1.26578
rtibia 32.3677
rfoot -5.71571 -17.9317
rtoes 10.0695
lfemur -21.5328 0.643404 -23.1447
ltibia 48.4679
lfoot -27.6097 14.9804
ltoes 0.195408
210
root 5.58434 15.2478 1.05666 -6.75367 -82.8562 12.7702
lowerback 8.90309 0.00496126 -4.36601
upperback 2.34516 -0.396184 1.63523
thorax -2.51414 -0.206973 4.20419
lowerneck -4.7206 -2.75018 -1.35705
upperneck 21.4806 -4.49775 1.71989
head 7.4258 -2.29249 0.41688
rclavicle 3.97569e-016 5.1684e-015
rhumerus 12.2999 -39.7711 -4.02337
rradius 132.647
rwrist -18.0642
rhand -11.2668 -43.5559
rfingers 7.12502
rthumb 14.7634 -73.0101
lclavicle 3.97569e-016 5.1684e-015
lhumerus 17.8188 15.4577 41.6962
lradius 135.388
lwrist -9.91254
lhand -20.6613 -26.1321
lfingers 7.12502
lthumb 5.70132 3.77123
rfemur -36.6022 14.6086 1.27681
rtibia 31.75
rfoot -5.51344 -18.3063
rtoes 9.69292
lfemur -21.8517 1.01572 -22.9592
ltibia 48.7672
lfoot -27.7618 14.608
ltoes 0.530726
211
root 5.62724 15.2474 1.08315 -4.92343 -82.9384 10.8605
lowerback 8.94466 -0.184287 -4.60416
upperback 2.4663 -0.670175 1.74584
thorax -2.37767 -0.350733 4.48419
lowerneck -4.6772 -3.18548 -1.75852
upperneck 21.3703 -5.14044 2.15667
head 7.41595 -2.59423 0.576428
rclavicle -4.96962e-015 8.34896e-015
rhumerus 12.2251 -40.7794 -3.78351
rradius 132.696
rwrist -18.2769
rhand -11.2416 -43.5945
rfingers 7.12502
rthumb 14.7878 -73.0469
lclavicle -4.96962e-015 8.34896e-015
lhumerus 18.9017 16.1277 42.3142
lradius 135.551
lwrist -9.65407
lhand -23.5041 -25.7158
lfingers 7.12502
lthumb 2.95626 4.24341
rfemur -36.3729 15.0749 1.22256
rtibia 31.1036
rfoot -5.40912 -18.7501
rtoes 10.0247
lfemur -22.1006 1.30877 -22.8184
ltibia 49.0763
lfoot -27.8499 14.3015
ltoes 0.797265
212
root 5.66658 15.2492 1.10902 -2.4661 -82.9996 8.33826
lowerback 8.91452 -0.417412 -4.76828
upperback 2.53892 -0.991172 1.88059
thorax -2.24379 -0.517114 4.751
lowerneck -4.36366 -3.52901 -1.97451
upperneck 21.1721 -5.65969 2.47759
head 7.32267 -2.83876 0.683478
rclavicle 1.08338e-014 1.98785e-015
rhumerus 12.3949 -41.4452 -3.90512
rradius 132.728
rwrist -18.3725
rhand -10.6368 -44.0571
rfingers 7.12502
rthumb 15.3703 -73.4657
lclavicle 1.08338e-014 1.98785e-015
lhumerus 19.8323 16.8745 42.9042
lradius 135.859
lwrist -9.41221
lhand -22.824 -26.2143
lfingers 7.12502
lthumb 3.61308 3.73481
rfemur -36.1504 15.553 1.23953
rtibia 30.463
rfoot -5.31826 -19.2802
rtoes 10.8883
lfemur -22.3286 1.57859 -22.6087
ltibia 49.3524
lfoot -27.7678 14.1628
ltoes 0.530966
213
root 5.70724 15.251 1.13505 0.182553 -83.0763 5.72919
lowerback 8.78815 -0.679165 -4.77623
upperback 2.56374 -1.33304 1.92283
thorax -2.10664 -0.692464 4.83093
lowerneck -3.91717 -3.85091 -2.00311
upperneck 21.049 -6.15429 2.65495
head 7.22253 -3.07435 0.718149
rclavicle -5.26779e-015 3.51849e-014
rhumerus 12.7018 -41.751 -4.42157
rradius 132.666
rwrist -18.0397
rhand -9.42912 -44.412
rfingers 7.12502
rthumb 16.5333 -73.7277
lclavicle -5.26779e-015 3.51849e-014
lhumerus 21.0075 17.556 43.4572
lradius 136.011
lwrist -9.10305
lhand -22.8347 -25.6123
lfingers 7.12502
lthumb 3.60278 4.33701
rfemur -36.0931 15.8911 1.28431
rtibia 29.873
rfoot -5.08641 -19.7022
rtoes 11.203
lfemur -22.674 1.809 -22.3938
ltibia 49.5856
lfoot -27.8183 13.9637
ltoes 0.501567
214
root 5.7484 15.2529 1.16088 2.13518 -83.1394 3.78694
lowerback 8.69519 -0.966593 -4.68409
upperback 2.66325 -1.70665 1.80727
thorax -1.91429 -0.887262 4.68905
lowerneck -3.64678 -4.13148 -1.95785
upperneck 20.9207 -6.59313 2.846
head 7.14985 -3.27341 0.746433
rclavicle -7.65321e-015 -5.56597e-015
rhumerus 13.2099 -42.1989 -5.16895
rradius 132.551
rwrist -17.3858
rhand -7.97744 -44.5904
rfingers 7.12502
rthumb 17.9305 -73.7838
lclavicle -7.65321e-015 -5.56597e-015
lhumerus 22.3366 17.9991 43.8465
lradius 135.847
lwrist -9.11966
lhand -20.3382 -24.5196
lfingers 7.12502
lthumb 6.01331 5.37507
rfemur -36.0321 16.2713 1.23296
rtibia 29.3327
rfoot -4.88178 -20.147
rtoes 11.0953
lfemur -22.9668 1.92215 -22.2637
ltibia 49.7895
lfoot -28.0725 13.5736
ltoes 1.37633
215
root 5.78448 15.2542 1.18578 3.08986 -83.1261 2.82827
lowerback 8.64653 -1.25695 -4.83758
upperback 2.7443 -2.10549 1.74837
thorax -1.75348 -1.0936 4.74823
lowerneck -3.44431 -4.34574 -2.13474
upperneck 20.8884 -6.96062 3.22281
head 7.13377 -3.43986 0.874046
rclavicle -9.16894e-015 1.45113e-014
rhumerus 13.8538 -42.5727 -5.80848
rradius 132.48
rwrist -17.1837
rhand -7.34741 -44.7014
rfingers 7.12502
rthumb 18.5367 -73.8382
lclavicle -9.16894e-015 1.45113e-014
lhumerus 23.6041 18.4589 44.307
lradius 135.728
lwrist -9.23151
lhand -19.4773 -23.9877
lfingers 7.12502
lthumb 6.84442 5.88171
rfemur -35.9298 16.6621 1.05522
rtibia 28.8307
rfoot -4.64389 -20.7117
rtoes 10.9363
lfemur -23.2088 1.94282 -22.2614
ltibia 49.9828
lfoot -28.0214 13.5853
ltoes 0.879292
216
root 5.81975 15.2539 1.2114 3.9441 -83.0646 2.00405
lowerback 8.58186 -1.50388 -5.18368
upperback 2.76617 -2.45689 1.89918
thorax -1.6308 -1.27525 5.13104
lowerneck -3.40227 -4.58444 -2.65201
upperneck 21.1733 -7.34114 3.54612
head 7.26296 -3.63919 1.03128
rclavicle 1.54307e-014 -8.84592e-015
rhumerus 14.3871 -42.8124 -5.96058
rradius 132.426
rwrist -17.4787
rhand -7.95698 -44.6479
rfingers 7.12502
rthumb 17.9502 -73.8396
lclavicle 1.54307e-014 -8.84592e-015
lhumerus 24.8204 18.8916 45.2409
lradius 135.796
lwrist -9.20706
lhand -19.5423 -24.6409
lfingers 7.12502
lthumb 6.7817 5.23048
rfemur -35.8707 16.967 0.858018
rtibia 28.3708
rfoot -4.44268 -21.2708
rtoes 11.3303
lfemur -23.486 1.92986 -22.2833
ltibia 50.1847
lfoot -27.7355 13.9104
ltoes -0.696498
217
root 5.85654 15.2524 1.23786 5.62862 -83.0862 0.301165
lowerback 8.62763 -1.71226 -5.47332
upperback 2.74648 -2.75685 2.12378
thorax -1.61198 -1.42763 5.56029
lowerneck -3.43452 -4.82262 -2.96519
upperneck 21.4904 -7.67598 3.54081
head 7.39717 -3.82593 1.04942
rclavicle 1.89342e-014 1.5207e-014
rhumerus 14.8435 -43.1843 -5.88267
rradius 132.445
rwrist -18.0183
rhand -8.57213 -44.7684
rfingers 7.12502
rthumb 17.3583 -74.0133
lclavicle 1.89342e-014 1.5207e-014
lhumerus 25.9039 19.2021 46.1964
lradius 135.82
lwrist -9.10887
lhand -19.5509 -24.9373
lfingers 7.12502
lthumb 6.77333 4.93437
rfemur -35.8152 17.2881 0.799875
rtibia 27.9497
rfoot -4.27313 -21.7335
rtoes 11.8005
lfemur -23.7152 1.93175 -22.1969
ltibia 50.3995
lfoot -27.6106 14.016
ltoes -1.31727
